<svg width="919" height="256" viewBox="0 0 919 256" fill="none" xmlns="http://www.w3.org/2000/svg">
<path d="M384.114 177.795L402.595 85.8161H431.373C437.392 85.8161 442.753 86.6155 447.455 88.2143C452.252 89.7191 456.014 92.2113 458.741 95.6911C461.468 99.0768 462.832 103.638 462.832 109.375C462.832 117.933 460.622 124.846 456.202 130.112C451.782 135.379 446.186 139.141 439.414 141.398L453.663 177.795H433.348L421.498 144.079H410.213L403.582 177.795H384.114ZM413.316 128.702H423.05C429.916 128.702 435.088 127.197 438.568 124.187C442.048 121.178 443.788 117.181 443.788 112.196C443.788 108.34 442.471 105.566 439.838 103.873C437.204 102.086 433.395 101.193 428.411 101.193H418.677L413.316 128.702ZM495.552 179.487C487.088 179.487 480.175 176.854 474.814 171.587C469.548 166.227 466.914 158.891 466.914 149.58C466.914 143.091 468.043 137.213 470.3 131.946C472.557 126.586 475.567 121.977 479.329 118.121C483.185 114.265 487.417 111.303 492.025 109.234C496.633 107.165 501.242 106.13 505.85 106.13C511.399 106.13 515.819 107.306 519.111 109.657C522.497 112.008 524.942 115.159 526.447 119.109C527.951 123.059 528.704 127.479 528.704 132.37C528.704 135.567 528.28 138.718 527.434 141.821C526.588 144.831 525.882 146.853 525.318 147.887H485.254C484.878 153.907 486.241 158.28 489.345 161.007C492.448 163.64 496.304 164.957 500.913 164.957C503.076 164.957 505.333 164.44 507.684 163.405C510.035 162.371 512.104 161.242 513.891 160.02L520.663 172.152C517.841 174.127 514.314 175.867 510.082 177.371C505.85 178.782 501.007 179.487 495.552 179.487ZM486.805 136.037H512.198C512.669 134.627 512.904 133.028 512.904 131.241C512.904 128.42 512.198 126.021 510.788 124.046C509.471 121.977 507.026 120.943 503.452 120.943C500.16 120.943 496.963 122.212 493.859 124.752C490.755 127.291 488.404 131.053 486.805 136.037ZM556.79 179.487C552.464 179.487 547.903 178.312 543.106 175.961C538.404 173.609 534.595 170.271 531.679 165.945L542.824 156.634C547.714 162.465 552.746 165.38 557.919 165.38C560.646 165.38 562.95 164.769 564.831 163.546C566.806 162.23 567.794 160.631 567.794 158.75C567.794 156.681 566.759 154.988 564.69 153.671C562.621 152.355 559.517 150.521 555.379 148.17C551.712 146.101 548.467 143.467 545.645 140.27C542.918 137.072 541.554 133.31 541.554 128.984C541.554 124.564 542.73 120.661 545.081 117.275C547.526 113.795 550.771 111.068 554.815 109.093C558.953 107.118 563.514 106.13 568.499 106.13C573.295 106.13 577.622 107.165 581.478 109.234C585.334 111.303 588.672 113.842 591.494 116.852L581.054 126.727C579.267 125.034 577.292 123.576 575.129 122.354C573.06 121.131 570.803 120.52 568.358 120.52C565.725 120.52 563.609 121.178 562.01 122.495C560.411 123.717 559.612 125.269 559.612 127.15C559.612 129.313 560.834 131.1 563.279 132.511C565.819 133.827 568.452 135.285 571.179 136.884C575.317 139.047 578.797 141.633 581.619 144.643C584.44 147.558 585.851 151.508 585.851 156.493C585.851 161.007 584.581 165.004 582.042 168.484C579.597 171.964 576.164 174.691 571.744 176.666C567.417 178.547 562.433 179.487 556.79 179.487ZM614.605 179.487C608.868 179.487 604.683 177.936 602.05 174.832C599.416 171.729 598.1 167.261 598.1 161.43C598.1 159.832 598.194 158.233 598.382 156.634C598.57 155.035 598.852 153.342 599.228 151.555L607.975 107.823H627.16L618.978 149.157C618.602 150.568 618.32 151.79 618.132 152.825C617.944 153.86 617.85 154.847 617.85 155.787C617.85 160.584 620.201 162.982 624.903 162.982C628.853 162.982 633.509 159.973 638.869 153.954L647.898 107.823H667.225L653.4 177.795H637.741L638.023 168.343H637.459C634.261 171.258 630.687 173.845 626.737 176.102C622.881 178.359 618.837 179.487 614.605 179.487ZM702.199 179.487C693.735 179.487 686.823 176.854 681.462 171.587C676.195 166.227 673.562 158.891 673.562 149.58C673.562 143.091 674.69 137.213 676.948 131.946C679.205 126.586 682.214 121.977 685.976 118.121C689.832 114.265 694.064 111.303 698.673 109.234C703.281 107.165 707.889 106.13 712.498 106.13C718.046 106.13 722.467 107.306 725.758 109.657C729.144 112.008 731.589 115.159 733.094 119.109C734.599 123.059 735.351 127.479 735.351 132.37C735.351 135.567 734.928 138.718 734.082 141.821C733.235 144.831 732.53 146.853 731.965 147.887H691.901C691.525 153.907 692.889 158.28 695.992 161.007C699.096 163.64 702.952 164.957 707.56 164.957C709.723 164.957 711.98 164.44 714.332 163.405C716.683 162.371 718.752 161.242 720.539 160.02L727.31 172.152C724.489 174.127 720.962 175.867 716.73 177.371C712.498 178.782 707.654 179.487 702.199 179.487ZM693.453 136.037H718.846C719.316 134.627 719.551 133.028 719.551 131.241C719.551 128.42 718.846 126.021 717.435 124.046C716.118 121.977 713.673 120.943 710.099 120.943C706.808 120.943 703.61 122.212 700.507 124.752C697.403 127.291 695.052 131.053 693.453 136.037ZM758.782 179.487C753.798 179.487 750.177 178.265 747.92 175.82C745.757 173.374 744.675 170.036 744.675 165.804C744.675 163.358 745.004 160.49 745.663 157.198L761.321 78.9036H780.648L764.707 158.045C764.613 158.703 764.519 159.22 764.425 159.596C764.425 159.973 764.425 160.349 764.425 160.725C764.425 161.948 764.707 162.794 765.271 163.264C765.836 163.734 766.447 163.97 767.105 163.97C767.576 163.97 767.952 163.97 768.234 163.97C768.516 163.876 768.986 163.782 769.645 163.687L769.08 177.936C767.858 178.312 766.4 178.641 764.707 178.923C763.014 179.299 761.039 179.487 758.782 179.487ZM795.657 177.795L786.769 107.823H805.955L808.353 142.104C808.635 145.583 808.824 149.11 808.918 152.684C809.012 156.258 809.106 159.832 809.2 163.405H809.764C811.363 159.832 812.915 156.305 814.419 152.825C815.924 149.251 817.476 145.677 819.075 142.104L834.734 107.823H853.637L817.946 177.795H795.657ZM878.919 179.487C870.737 179.487 864.153 176.854 859.169 171.587C854.278 166.321 851.833 159.361 851.833 150.709C851.833 143.937 852.962 137.824 855.219 132.37C857.476 126.915 860.485 122.212 864.247 118.263C868.009 114.313 872.194 111.303 876.803 109.234C881.505 107.165 886.254 106.13 891.051 106.13C896.506 106.13 901.255 107.353 905.299 109.798C909.343 112.149 912.494 115.488 914.751 119.814C917.008 124.046 918.137 129.078 918.137 134.909C918.137 141.68 917.008 147.793 914.751 153.248C912.494 158.703 909.484 163.405 905.722 167.355C901.96 171.305 897.728 174.315 893.026 176.384C888.418 178.453 883.715 179.487 878.919 179.487ZM881.035 163.97C884.232 163.97 887.148 162.747 889.781 160.302C892.415 157.762 894.531 154.33 896.129 150.004C897.822 145.677 898.669 140.787 898.669 135.332C898.669 131.006 897.822 127.667 896.129 125.316C894.531 122.871 892.085 121.648 888.794 121.648C885.69 121.648 882.775 122.918 880.047 125.457C877.414 127.902 875.298 131.288 873.699 135.614C872.1 139.94 871.301 144.831 871.301 150.286C871.301 154.518 872.1 157.857 873.699 160.302C875.392 162.747 877.837 163.97 881.035 163.97Z" fill="url(#paint0_linear_98_19)"/>
<path d="M243.184 177.795L258.138 102.18H234.014L237.118 85.8161H304.832L301.588 102.18H277.464L262.511 177.795H243.184ZM318.678 179.487C310.214 179.487 303.301 176.854 297.941 171.587C292.674 166.227 290.041 158.891 290.041 149.58C290.041 143.091 291.169 137.213 293.426 131.946C295.683 126.586 298.693 121.977 302.455 118.121C306.311 114.265 310.543 111.303 315.151 109.234C319.76 107.165 324.368 106.13 328.976 106.13C334.525 106.13 338.945 107.306 342.237 109.657C345.623 112.008 348.068 115.159 349.573 119.109C351.077 123.059 351.83 127.479 351.83 132.37C351.83 135.567 351.407 138.718 350.56 141.821C349.714 144.831 349.008 146.853 348.444 147.887H308.38C308.004 153.907 309.367 158.28 312.471 161.007C315.575 163.64 319.43 164.957 324.039 164.957C326.202 164.957 328.459 164.44 330.81 163.405C333.161 162.371 335.23 161.242 337.017 160.02L343.789 172.152C340.967 174.127 337.441 175.867 333.208 177.371C328.976 178.782 324.133 179.487 318.678 179.487ZM309.932 136.037H335.325C335.795 134.627 336.03 133.028 336.03 131.241C336.03 128.42 335.325 126.021 333.914 124.046C332.597 121.977 330.152 120.943 326.578 120.943C323.286 120.943 320.089 122.212 316.985 124.752C313.882 127.291 311.53 131.053 309.932 136.037Z" fill="url(#paint1_linear_98_19)"/>
<path d="M99.9023 254.86C80.2995 237.692 69.7729 227.267 52.6434 205.838L135.17 159.637L152.451 198.784C134.563 222.639 122.806 234.731 99.9023 254.86Z" fill="#2E5A25" stroke="#2E5A25" stroke-width="0.705357"/>
<path d="M52.2906 205.838C52.2906 205.838 25.8398 175.507 4.32629 124.722C-5.4852 93.0196 2.56315 59.829 16.7345 40.4317C30.9059 21.0344 43.6023 12.1687 66.3977 3.75311L105.898 91.9227L87.5584 109.557L55.112 77.4629L28.3083 103.914L87.9111 162.458L52.2906 205.838Z" fill="#254296"/>
<path d="M123.179 2.34241C152.099 8.33794 171.496 30.5567 171.496 30.5567L105.898 91.9227L66.3979 3.75312C66.3979 3.75312 94.2595 -3.65312 123.179 2.34241Z" fill="#4782D2"/>
<path d="M135.17 159.284L119.652 123.664L183.487 47.1325C183.487 47.1325 195.126 59.1236 197.594 84.5164C200.063 109.909 193.715 125.074 193.715 125.074L135.17 159.284Z" fill="#83B52F"/>
<path d="M152.451 198.784L135.17 159.284L193.715 125.074C193.715 125.074 185.25 147.293 175.375 163.516C165.501 179.74 152.451 198.784 152.451 198.784Z" fill="#477E23"/>
<path d="M52.2908 205.838L119.652 123.664L135.17 159.284L52.2908 205.838Z" fill="#43782B"/>
<defs>
<linearGradient id="paint0_linear_98_19" x1="651.664" y1="38.7946" x2="651.664" y2="215.795" gradientUnits="userSpaceOnUse">
<stop stop-color="#4782D2"/>
<stop offset="1" stop-color="#254296"/>
</linearGradient>
<linearGradient id="paint1_linear_98_19" x1="289.164" y1="38.7946" x2="289.164" y2="215.795" gradientUnits="userSpaceOnUse">
<stop stop-color="#83B52F"/>
<stop offset="1" stop-color="#2E5A25"/>
</linearGradient>
</defs>
</svg>
