<svg width="150" height="193" viewBox="0 0 150 193" fill="none" xmlns="http://www.w3.org/2000/svg">
<path d="M75.2122 191.873C60.4541 178.948 52.529 171.099 39.633 154.966L101.764 120.184L114.774 149.656C101.306 167.615 92.4554 176.719 75.2122 191.873Z" fill="#2E5A25" stroke="#2E5A25" stroke-width="0.531033"/>
<path d="M39.3673 154.966C39.3673 154.966 19.4536 132.132 3.25707 93.8977C-4.12957 70.0305 1.92968 45.0427 12.5987 30.4393C23.2677 15.8359 32.8263 9.16131 49.988 2.82556L79.7257 69.2046L65.919 82.4805L41.4915 58.3185L21.3121 78.2322L66.1845 122.308L39.3673 154.966Z" fill="#254296"/>
<path d="M92.7363 1.7635C114.509 6.27728 129.112 23.0048 129.112 23.0048L79.726 69.2046L49.9881 2.82556C49.9881 2.82556 70.9639 -2.75028 92.7363 1.7635Z" fill="#4782D2"/>
<path d="M101.764 119.918L90.0811 93.1012L138.14 35.4841C138.14 35.4841 146.902 44.5117 148.76 63.6289C150.619 82.746 145.84 94.1632 145.84 94.1632L101.764 119.918Z" fill="#83B52F"/>
<path d="M114.774 149.656L101.764 119.918L145.84 94.1632C145.84 94.1632 139.467 110.891 132.033 123.104C124.598 135.318 114.774 149.656 114.774 149.656Z" fill="#477E23"/>
<path d="M39.3675 154.966L90.0811 93.1012L101.764 119.918L39.3675 154.966Z" fill="#43782B"/>
</svg>
